<?xml version="1.0" encoding="UTF-8" standalone="no"?>
<svg
   xmlns:dc="http://purl.org/dc/elements/1.1/"
   xmlns:cc="http://creativecommons.org/ns#"
   xmlns:rdf="http://www.w3.org/1999/02/22-rdf-syntax-ns#"
   xmlns:svg="http://www.w3.org/2000/svg"
   xmlns="http://www.w3.org/2000/svg"
   xmlns:sodipodi="http://sodipodi.sourceforge.net/DTD/sodipodi-0.dtd"
   xmlns:inkscape="http://www.inkscape.org/namespaces/inkscape"
   viewBox="0 0 124.44 144.00"
   id="svg2"
   version="1.1"
   sodipodi:docname="logo.svg"
   inkscape:version="0.92.3 (2405546, 2018-03-11)">
  <metadata
     id="metadata159">
    <rdf:RDF>
      <cc:Work
         rdf:about="">
        <dc:format>image/svg+xml</dc:format>
        <dc:type
           rdf:resource="http://purl.org/dc/dcmitype/StillImage" />
        <dc:title />
      </cc:Work>
    </rdf:RDF>
  </metadata>
  <sodipodi:namedview
     pagecolor="#ffffff"
     bordercolor="#666666"
     borderopacity="1"
     objecttolerance="10"
     gridtolerance="10"
     guidetolerance="10"
     inkscape:pageopacity="0"
     inkscape:pageshadow="2"
     inkscape:window-width="1920"
     inkscape:window-height="1001"
     id="namedview157"
     showgrid="true"
     inkscape:zoom="3.25"
     inkscape:cx="43.701444"
     inkscape:cy="98.438565"
     inkscape:window-x="-9"
     inkscape:window-y="-9"
     inkscape:window-maximized="1"
     inkscape:current-layer="svg2"
     showguides="false">
    <inkscape:grid
       type="xygrid"
       id="grid861"
       spacingx="0.16"
       spacingy="0.16"
       empspacing="4"
       units="pc" />
  </sodipodi:namedview>
  <defs
     id="defs4">
    <style
       type="text/css"
       id="style6">
    line, polyline, path, rect, circle {
      fill: none;
      stroke: #000000;
      stroke-linecap: round;
      stroke-linejoin: round;
      stroke-miterlimit: 10.00;
    }
  </style>
    <mask
       maskUnits="userSpaceOnUse"
       id="mask4581">
      <polyline
         transform="translate(93.114,32.081)"
         points="2.285 37.429 2.285 106.799 62.105 141.486 121.926 106.799 121.926 37.429 62.105 2.743 2.285 37.429"
         style="fill:#dedccf;fill-opacity:1;fill-rule:nonzero;stroke:#008a00;stroke-width:4;stroke-linecap:round;stroke-linejoin:round;stroke-miterlimit:10;stroke-opacity:0.99004977"
         clip-path="url(#cpMHwxMjQuNDQxfDE0My45OTd8MC4xNDMxMzc=)"
         id="polyline4583" />
    </mask>
    <clipPath
       clipPathUnits="userSpaceOnUse"
       id="clipPath5085">
      <polyline
         transform="translate(-62.732692,-31.469154)"
         points="2.285 37.429 2.285 106.799 62.105 141.486 121.926 106.799 121.926 37.429 62.105 2.743 2.285 37.429"
         style="fill:#d5d2ca;fill-opacity:1;fill-rule:nonzero;stroke:none;stroke-width:4;stroke-linecap:round;stroke-linejoin:round;stroke-miterlimit:10;stroke-opacity:0.99004977"
         clip-path="url(#cpMHwxMjQuNDQxfDE0My45OTd8MC4xNDMxMzc=)"
         id="polyline5087" />
    </clipPath>
  </defs>
  <rect
     width="100%"
     height="100%"
     style="fill:none;stroke:none;stroke-linecap:round;stroke-linejoin:round;stroke-miterlimit:10"
     id="rect8"
     x="-0.954"
     y="-1.3609837" />
  <rect
     x="-0.954"
     y="-1.2209691"
     width="124.44"
     height="143.71001"
     style="fill:none;stroke:none;stroke-width:1.07000005;stroke-linecap:round;stroke-linejoin:round;stroke-miterlimit:10"
     clip-path="url(#cpMHwxMjQuNDQxfDE0My44NTd8MC4xNDMxMzc=)"
     id="rect15" />
  <rect
     x="-1.094"
     y="-1.2209691"
     width="124.58"
     height="143.85001"
     style="fill:none;stroke:none;stroke-width:1.07000005;stroke-linecap:round;stroke-linejoin:round;stroke-miterlimit:10"
     clip-path="url(#cpMHwxMjQuNDQxfDE0My45OTd8MC4xNDMxMzc=)"
     id="rect27" />
  <polyline
     points="2.285 37.429 2.285 106.799 62.105 141.486 121.926 106.799 121.926 37.429 62.105 2.743 2.285 37.429"
     style="fill:#d5d2ca;fill-opacity:1;fill-rule:nonzero;stroke:none;stroke-width:4;stroke-linecap:round;stroke-linejoin:round;stroke-miterlimit:10;stroke-opacity:0.99004977"
     clip-path="url(#cpMHwxMjQuNDQxfDE0My45OTd8MC4xNDMxMzc=)"
     id="polyline29"
     transform="translate(-0.95399999,-1.3609688)" />
  <path
     inkscape:connector-curvature="0"
     style="fill:#6aade4;fill-opacity:1;fill-rule:nonzero;stroke:none;stroke-width:4;stroke-linecap:round;stroke-linejoin:round;stroke-miterlimit:10;stroke-opacity:0.99004977"
     clip-path="url(#cpMHwxMjQuNDQxfDE0My45OTd8MC4xNDMxMzc=)"
     d="m 91.8342,57.931691 c -0.50031,6.3e-4 -0.99724,0.0194 -1.48633,0.0566 -9.60157,0.73126 -18.59865,6.12584 -28.11719,16.86133 -0.92481,1.04305 -1.89172,2.12814 -2.14843,2.41015 -0.42219,0.46383 -2.04596,2.61087 -7.37891,9.75781 -3.99833,5.35835 -7.30564,8.0822 -11.27539,9.28711 -1.58557,0.48126 -2.21424,0.45055 -3.5,-0.17187 -2.27978,-1.10362 -3.19262,-4.32242 -2.64844,-9.33985 0.94996,-8.75865 4.32807,-13.46491 11.0957,-15.46289 1.9543,-0.57695 5.07657,-0.71466 6.01172,-0.26562 0.30772,0.14776 0.10946,-0.13612 -0.44531,-0.63867 -4.69982,-4.25745 -15.74002,-4.14725 -24.61328,0.24609 -4.96282,2.4572 -9.45919,6.31926 -16.23242,13.94727 -4.28535,4.82617 -6.25494,6.71107 -8.7461,8.36718 -0.44132,0.29339 -0.87692,0.56494 -1.30664,0.8125 v 12.587889 l 59.81836,34.6875 59.82227,-34.6875 v -7.923819 c -2.10883,-0.14134 -4.52701,-0.41763 -5.23047,-0.62305 -2.78378,-0.8129 -4.70522,-2.27965 -5.72656,-4.36719 -0.54997,-1.12416 -0.64359,-1.58139 -0.50391,-2.45507 0.37568,-2.3498 2.24633,-4.31164 4.82813,-5.06446 l 1.23437,-0.36133 -2.00781,-0.35937 c -2.549,-0.45716 -6.45207,-0.45562 -8.09375,0.002 -2.02811,0.56528 -4.28431,1.79495 -8.59375,4.6875 -6.23106,4.18236 -10.16398,5.81073 -11.93555,4.94336 -1.40161,-0.68623 -1.79284,-1.55369 -1.74414,-3.86328 0.16092,-7.63208 6.08257,-16.54874 13.18945,-19.86133 2.02541,-0.94407 5.49874,-1.86082 7.05469,-1.86133 2.07136,-7.4e-4 4.11775,1.03211 4.72266,2.38477 0.43239,0.96688 0.0314,-1.96397 -0.47266,-3.45703 -1.01327,-3.0014 -3.53678,-6.2281 -6.26758,-8.01172 -2.14259,-1.39944 -5.80058,-2.26808 -9.30273,-2.26368 z"
     id="polyline29-3-1" />
  <g
     id="g5036"
     transform="translate(62.053692,31.719191)"
     style="stroke:#d0b972;stroke-opacity:0.98407647"
     clip-path="url(#clipPath5085)">
    <circle
       r="15"
       cy="9"
       cx="-25"
       id="path4967"
       style="opacity:1;fill:#d0b972;fill-opacity:1;fill-rule:nonzero;stroke:#d0b972;stroke-width:2.13068175;stroke-linecap:round;stroke-linejoin:round;stroke-miterlimit:10;stroke-dasharray:none;stroke-opacity:0.98407647;paint-order:markers stroke fill" />
    <ellipse
       ry="20.884001"
       rx="20.883999"
       cy="8.999999"
       cx="-25"
       id="path4969"
       style="opacity:1;fill:none;fill-opacity:1;fill-rule:nonzero;stroke:#d0b972;stroke-width:4.23200035;stroke-linecap:round;stroke-linejoin:round;stroke-miterlimit:10;stroke-dasharray:none;stroke-opacity:0.98407647;paint-order:markers stroke fill" />
    <circle
       r="28.94348"
       cy="8.999999"
       cx="-25"
       id="path4969-3"
       style="opacity:1;fill:none;fill-opacity:1;fill-rule:nonzero;stroke:#d0b972;stroke-width:4.11304235;stroke-linecap:round;stroke-linejoin:round;stroke-miterlimit:10;stroke-dasharray:none;stroke-opacity:0.98407647;paint-order:markers stroke fill" />
    <ellipse
       ry="36.998432"
       rx="36.998428"
       cy="8.9999981"
       cx="-25.000002"
       id="path4969-3-3"
       style="opacity:1;fill:none;fill-opacity:1;fill-rule:nonzero;stroke:#d0b972;stroke-width:4.00313902;stroke-linecap:round;stroke-linejoin:round;stroke-miterlimit:10;stroke-dasharray:none;stroke-opacity:0.98407647;paint-order:markers stroke fill" />
    <ellipse
       ry="44.999249"
       rx="44.999245"
       cy="8.9999981"
       cx="-25.000002"
       id="path4969-3-3-6"
       style="opacity:1;fill:none;fill-opacity:1;fill-rule:nonzero;stroke:#d0b972;stroke-width:4.00150633;stroke-linecap:round;stroke-linejoin:round;stroke-miterlimit:10;stroke-dasharray:none;stroke-opacity:0.98407647;paint-order:markers stroke fill" />
  </g>
  <path
     style="fill:#ffffff;fill-opacity:1;fill-rule:nonzero;stroke:none;stroke-width:4;stroke-linecap:round;stroke-linejoin:round;stroke-miterlimit:10;stroke-opacity:0.99004977"
     clip-path="url(#cpMHwxMjQuNDQxfDE0My45OTd8MC4xNDMxMzc=)"
     d="m 92.98311,60.636921 c -1.00528,0 -1.86764,0.15234 -2.58984,0.45313 -0.72219,0.30239 -1.31009,0.75425 -1.76367,1.35742 -0.45359,0.60961 -0.78504,1.3549 -0.99415,2.23633 -0.20749,0.87822 -0.31054,1.91625 -0.31054,3.11133 0,1.15809 0.0997,2.18612 0.30078,3.08203 0.20266,0.8943 0.53114,1.64258 0.98633,2.24414 0.44715,0.60639 1.0317,1.06387 1.7539,1.37109 0.18282,0.0778 0.37596,0.14512 0.57813,0.20313 1.56859,-1.43844 3.2852,-2.63305 5.07812,-3.46875 0.67642,-0.31529 1.5244,-0.6126 2.39844,-0.88868 0.13709,-0.77827 0.22266,-1.61501 0.22266,-2.55273 0,-1.15808 -0.10008,-2.1775 -0.30274,-3.06055 -0.20106,-0.88304 -0.5255,-1.6273 -0.97265,-2.23047 -0.45358,-0.61765 -1.03711,-1.07824 -1.74805,-1.38867 -0.70933,-0.31204 -1.58961,-0.46875 -2.63672,-0.46875 z m -13.43555,0.32227 c -0.0892,0.0418 -0.17841,0.0901 -0.26757,0.13281 -0.0363,0.31863 -0.11486,0.59645 -0.25391,0.81836 -0.15923,0.25413 -0.39833,0.45956 -0.7168,0.61719 -0.26861,0.13511 -0.60443,0.22815 -1.00976,0.28125 -0.40372,0.0547 -0.82687,0.0801 -1.26758,0.0801 v 2.25195 h 2.88672 v 7.07813 h -2.88672 v 2.4121 h 9.13281 v -2.4121 h -2.82031 v -11.25977 z m 22.96094,0.43554 c -0.45704,0.27636 -0.84993,0.62462 -1.17187,1.05274 -0.45359,0.60961 -0.78504,1.3549 -0.99414,2.23633 -0.20749,0.87822 -0.31055,1.91625 -0.31055,3.11133 0,0.74286 0.0581,1.41165 0.14062,2.04687 1.14163,-0.27974 2.21902,-0.47634 2.9043,-0.47656 0.19549,-7e-5 0.39013,0.0174 0.58399,0.0352 -0.0455,-0.47692 -0.0762,-0.99426 -0.0762,-1.59571 0,-1.66314 0.16337,-2.84328 0.48828,-3.54296 0.1389,-0.29911 0.32556,-0.52196 0.54297,-0.69336 -0.64606,-0.79456 -1.35758,-1.52778 -2.10742,-2.17383 z m -9.52539,1.81641 c 0.75276,0 1.29228,0.3511 1.61719,1.05078 0.32491,0.69968 0.48828,1.87317 0.48828,3.52344 0,1.63258 -0.16671,2.80572 -0.49805,3.52148 -0.33134,0.71576 -0.86592,1.07227 -1.60742,1.07227 -0.74149,0 -1.27803,-0.35651 -1.60937,-1.07227 -0.33134,-0.71576 -0.4961,-1.88384 -0.4961,-3.50195 0,-1.66314 0.16337,-2.84329 0.48828,-3.54297 0.32491,-0.69968 0.86444,-1.05078 1.61719,-1.05078 z m -20.0293,1.6875 c -1.09378,0.79317 -2.18901,1.66039 -3.2871,2.5957 0.001,0.10073 0.008,0.18648 0.008,0.29102 0,1.63258 -0.1667,2.80572 -0.49805,3.52148 -0.33134,0.71576 -0.86397,1.07227 -1.60547,1.07227 -0.7415,0 -1.27999,-0.35651 -1.61133,-1.07227 -0.0397,-0.0858 -0.0686,-0.20006 -0.10351,-0.29882 -0.78546,0.78137 -1.57389,1.60584 -2.36524,2.46093 0.40068,0.4349 0.88535,0.77858 1.46094,1.02344 0.7222,0.30721 1.59616,0.46094 2.61914,0.46094 1.04067,0 1.91407,-0.15303 2.625,-0.45703 0.71255,-0.3056 1.29607,-0.75678 1.74805,-1.35352 0.44071,-0.58386 0.76516,-1.33444 0.97266,-2.24805 0.2091,-0.9152 0.31445,-1.95128 0.31445,-3.10937 0,-1.08761 -0.0986,-2.04177 -0.27735,-2.88672 z m -32.89257,2.53516 c -1.16547,0.055 -2.35713,0.17922 -3.5625,0.37695 9.4e-4,1.15135 0.10068,2.17476 0.30078,3.06641 0.20267,0.8943 0.53113,1.64258 0.98633,2.24414 0.44715,0.60639 1.02976,1.06387 1.75195,1.37109 0.21764,0.0926 0.45415,0.16589 0.69922,0.23047 1.60768,-1.49841 3.60901,-2.58289 6.06054,-3.30664 0.34512,-0.10189 0.73333,-0.18413 1.13282,-0.25781 0.0233,-0.0888 0.0514,-0.17158 0.0723,-0.26368 0.17611,-0.77079 0.26128,-1.64693 0.28907,-2.58984 -1.08923,-0.34934 -2.2721,-0.6052 -3.53711,-0.75195 8.3e-4,0.0811 0.006,0.14893 0.006,0.23242 0,1.63258 -0.16475,2.80572 -0.49609,3.52148 -0.33134,0.71576 -0.86593,1.07227 -1.60742,1.07227 -0.7415,0 -1.27804,-0.35651 -1.60938,-1.07227 -0.33134,-0.71576 -0.49609,-1.88384 -0.49609,-3.50195 0,-0.13322 0.008,-0.24406 0.01,-0.37109 z m 9.19336,1.43164 c 0.044,0.72245 0.11656,1.4084 0.25195,2.01172 0.003,0.0129 0.007,0.0243 0.01,0.0371 1.20886,-0.0658 2.30278,9.5e-4 2.79297,0.23633 0.30772,0.14776 0.10946,-0.13612 -0.44531,-0.63868 -0.72468,-0.65647 -1.61439,-1.19739 -2.60937,-1.64648 z m -17.73829,0.16601 c -1.16161,0.38047 -2.30664,0.82863 -3.42578,1.3418 v 1.8457 h -2.88476 v 2.41211 h 9.13281 v -2.41211 h -2.82227 z m 76.17383,0.65625 c -0.0698,0.57477 -0.17902,1.0441 -0.32226,1.41602 0.17626,0.2058 0.33002,0.41925 0.43164,0.64648 0.31722,0.70936 0.18214,-0.6829 -0.10938,-2.0625 z m -86.05859,4.625 c -0.12863,0.0994 -0.26314,0.21585 -0.39258,0.31836 h 0.39258 z m 45.93945,2.40821 c -1.00529,0 -1.8696,0.15234 -2.59179,0.45312 -0.72221,0.30239 -1.31009,0.75425 -1.76368,1.35742 -0.45358,0.6096 -0.78504,1.35489 -0.99414,2.23633 -0.20749,0.87821 -0.31054,1.91625 -0.31054,3.11133 0,1.15809 0.0997,2.18612 0.30078,3.08203 0.20266,0.8943 0.53114,1.64453 0.98632,2.24609 0.44716,0.60639 1.03172,1.06194 1.75391,1.36915 0.7222,0.30722 1.59616,0.46093 2.61914,0.46093 1.04067,0 1.91407,-0.15303 2.625,-0.45703 0.71255,-0.30561 1.29607,-0.75677 1.74805,-1.35351 0.44071,-0.58387 0.76516,-1.33445 0.97266,-2.24805 0.20909,-0.91521 0.31445,-1.95129 0.31445,-3.10938 0,-1.15809 -0.10202,-2.1775 -0.30469,-3.06054 -0.20105,-0.88304 -0.52551,-1.62535 -0.97266,-2.22852 -0.45359,-0.61765 -1.03711,-1.08019 -1.74804,-1.39062 -0.70933,-0.31204 -1.58767,-0.46875 -2.63477,-0.46875 z m -49.01172,0.20312 c -0.87508,0.79848 -1.77338,1.64787 -2.7207,2.60547 0.25737,-0.15052 0.55538,-0.23437 0.9043,-0.23437 0.75276,0 1.29227,0.35111 1.61718,1.05078 0.32491,0.69968 0.48633,1.87315 0.48633,3.52343 0,1.63258 -0.16475,2.80572 -0.49609,3.52149 -0.33134,0.71576 -0.86592,1.07226 -1.60742,1.07226 -0.74149,0 -1.27804,-0.3565 -1.60938,-1.07226 -0.33134,-0.71577 -0.49609,-1.88385 -0.49609,-3.50195 0,-1.66314 0.16337,-2.84329 0.48828,-3.54297 0.0387,-0.0833 0.09,-0.14533 0.13476,-0.21875 -1.29416,1.33058 -2.65889,2.80052 -4.14257,4.46875 0.0341,0.8602 0.11049,1.66528 0.26757,2.36523 0.20268,0.8943 0.53114,1.64453 0.98633,2.24609 0.44715,0.60639 1.02976,1.06194 1.75196,1.36915 0.72219,0.30722 1.59617,0.46093 2.61914,0.46093 1.04067,0 1.91601,-0.15303 2.62695,-0.45703 0.71254,-0.30561 1.29411,-0.75677 1.74609,-1.35351 0.44072,-0.58387 0.76712,-1.33445 0.97461,-2.24805 0.20909,-0.91521 0.3125,-1.95129 0.3125,-3.10938 0,-1.15809 -0.10202,-2.1775 -0.30468,-3.06054 -0.20106,-0.88304 -0.52551,-1.62535 -0.97266,-2.22852 -0.45358,-0.61765 -1.03515,-1.08019 -1.74609,-1.39062 -0.24975,-0.10987 -0.52844,-0.19444 -0.82032,-0.26563 z m 9.91602,0.11914 c -0.0241,0.3812 -0.11811,0.699 -0.27735,0.95313 -0.15923,0.25414 -0.39636,0.4576 -0.71484,0.61523 -0.26861,0.13511 -0.60442,0.22815 -1.00976,0.28125 -0.40372,0.0547 -0.82686,0.0801 -1.26758,0.0801 v 2.25195 h 2.88476 v 7.07813 h -2.88476 v 2.41211 h 9.13281 v -2.41211 h -2.82227 v -11.25977 z m 50.82617,0 c -0.0241,0.3812 -0.11615,0.699 -0.27539,0.95313 -0.15923,0.25414 -0.39833,0.4576 -0.7168,0.61523 -0.26861,0.13511 -0.60443,0.22815 -1.00976,0.28125 -0.40372,0.0547 -0.82687,0.0801 -1.26758,0.0801 v 2.25195 h 2.88672 v 7.07813 h -2.88672 v 2.41211 h 6.82617 c 0.0358,-0.79484 0.12454,-1.59974 0.27734,-2.41211 h -0.79101 v -11.25977 z m -20.16016,1.41211 c -0.43556,0.55641 -1.21514,1.57662 -2.33789,3.07031 0.10609,0.63238 0.16407,1.40079 0.16407,2.34375 0,1.63258 -0.16671,2.80572 -0.49805,3.52149 -0.33134,0.71576 -0.86398,1.07226 -1.60547,1.07226 -0.7415,0 -1.27998,-0.3565 -1.61133,-1.07226 -0.10063,-0.21739 -0.18014,-0.4903 -0.25,-0.79102 -0.17334,0.23223 -0.19508,0.26018 -0.37695,0.50391 -0.64987,0.87092 -1.27731,1.64825 -1.89648,2.38476 0.41107,0.4651 0.91261,0.83138 1.51562,1.0879 0.7222,0.30722 1.59616,0.46093 2.61914,0.46093 1.04067,0 1.91602,-0.15303 2.62695,-0.45703 0.71255,-0.30561 1.29412,-0.75677 1.7461,-1.35351 0.44071,-0.58387 0.76516,-1.33445 0.97265,-2.24805 0.2091,-0.91521 0.31446,-1.95129 0.31446,-3.10938 0,-1.15809 -0.10202,-2.1775 -0.30469,-3.06054 -0.20106,-0.88304 -0.52551,-1.62535 -0.97266,-2.22852 -0.0326,-0.0444 -0.0715,-0.0822 -0.10547,-0.125 z m 8.42969,0.83985 c 0.75276,0 1.29033,0.35111 1.61524,1.05078 0.3249,0.69968 0.48828,1.87315 0.48828,3.52343 0,1.63258 -0.1667,2.80572 -0.49805,3.52149 -0.33134,0.71576 -0.86397,1.07226 -1.60547,1.07226 -0.7415,0 -1.27999,-0.3565 -1.61133,-1.07226 -0.33135,-0.71577 -0.49414,-1.88385 -0.49414,-3.50195 0,-1.66314 0.16143,-2.84329 0.48633,-3.54297 0.32491,-0.69967 0.86638,-1.05078 1.61914,-1.05078 z m 41.24219,5.68164 c -0.37386,1e-4 -0.69802,0.0287 -1.05078,0.043 -0.0626,1.0457 -0.21735,1.83645 -0.46485,2.37109 -0.33134,0.71576 -0.86593,1.07227 -1.60742,1.07227 -0.7415,0 -1.27803,-0.35651 -1.60937,-1.07227 -0.17981,-0.38844 -0.30688,-0.92178 -0.38867,-1.57617 -0.90505,0.37127 -1.97527,0.94412 -3.21485,1.67773 0.20201,0.66259 0.48038,1.23722 0.8418,1.71485 0.44715,0.60639 1.03172,1.06193 1.7539,1.36914 0.7222,0.30722 1.59421,0.46093 2.61719,0.46093 1.04067,0 1.91603,-0.15303 2.62696,-0.45703 0.46772,-0.2006 0.87306,-0.46912 1.22851,-0.79492 0.28367,-0.66188 0.6758,-1.27819 1.1875,-1.81445 0.11745,-0.30812 0.22329,-0.63378 0.30469,-0.99219 0.13221,-0.57867 0.20724,-1.22291 0.25586,-1.89844 -0.81319,-0.0681 -1.6613,-0.10375 -2.48047,-0.10351 z M 9.4753,86.404501 c -1.81807,1.99845 -3.26147,3.49695 -4.48633,4.57813 0.63119,-0.0668 1.19314,-0.1968 1.67383,-0.40235 0.71254,-0.30561 1.29411,-0.75677 1.74609,-1.35351 0.44072,-0.58387 0.76712,-1.33445 0.97461,-2.24805 0.041,-0.17961 0.0588,-0.3853 0.0918,-0.57422 z m 87.32422,3.41602 c -0.10513,0.0702 -0.17945,0.11523 -0.28711,0.1875 -0.28127,0.18879 -0.53277,0.34505 -0.80469,0.52343 0.40909,-0.18667 0.77169,-0.42503 1.0918,-0.71093 z m -92.76367,2.98632 c -0.58859,0 -1.12174,0.0588 -1.61329,0.16211 -0.0506,0.0341 -0.0994,0.0696 -0.15039,0.10352 -0.44132,0.29339 -0.87692,0.56493 -1.30664,0.8125 V 106.4338 c 0.14536,0.082 0.29443,0.161 0.45313,0.22851 0.72219,0.30721 1.59421,0.45899 2.61719,0.45899 1.04067,0 1.91601,-0.15305 2.62695,-0.45704 0.71254,-0.3056 1.29411,-0.75483 1.74609,-1.35156 0.44072,-0.58387 0.76712,-1.3364 0.97461,-2.25 0.2091,-0.91521 0.3125,-1.94933 0.3125,-3.107419 0,-1.15808 -0.10007,-2.17945 -0.30273,-3.0625 -0.20106,-0.88304 -0.52746,-1.62534 -0.97461,-2.22851 -0.45358,-0.61765 -1.03516,-1.0802 -1.7461,-1.39063 -0.70933,-0.31204 -1.5896,-0.4668 -2.63671,-0.4668 z m 25.41406,0 c -1.00528,0 -1.8696,0.1504 -2.5918,0.45118 -0.72219,0.30239 -1.30814,0.75425 -1.76172,1.35742 -0.45359,0.60961 -0.78504,1.35685 -0.99414,2.23828 -0.20749,0.87822 -0.31054,1.91429 -0.31054,3.10937 0,1.158089 0.0997,2.186119 0.30078,3.082029 0.20267,0.8943 0.53113,1.64453 0.98632,2.2461 0.44715,0.60638 1.02976,1.06387 1.75196,1.37109 0.7222,0.30721 1.59617,0.45899 2.61914,0.45899 1.04067,0 1.91601,-0.15305 2.62695,-0.45704 0.71255,-0.3056 1.29413,-0.75483 1.74609,-1.35156 0.44072,-0.58387 0.76517,-1.3364 0.97266,-2.25 0.2091,-0.91521 0.31445,-1.94933 0.31445,-3.107419 0,-1.15808 -0.10202,-2.17945 -0.30468,-3.0625 -0.20106,-0.88304 -0.52551,-1.62534 -0.97266,-2.22851 -0.45358,-0.61765 -1.03515,-1.0802 -1.74609,-1.39063 -0.70933,-0.31204 -1.58961,-0.4668 -2.63672,-0.4668 z m 50.82812,0 c -1.00528,0 -1.86959,0.1504 -2.59179,0.45118 -0.7222,0.30239 -1.31009,0.75425 -1.76368,1.35742 -0.45358,0.60961 -0.78504,1.35685 -0.99414,2.23828 -0.20749,0.87822 -0.31054,1.91429 -0.31054,3.10937 0,1.158089 0.0997,2.186119 0.30078,3.082029 0.20266,0.8943 0.53114,1.64453 0.98633,2.2461 0.44715,0.60638 1.0317,1.06387 1.7539,1.37109 0.72219,0.30721 1.59616,0.45899 2.61914,0.45899 1.04067,0 1.91406,-0.15305 2.625,-0.45704 0.71254,-0.3056 1.29607,-0.75483 1.74805,-1.35156 0.44071,-0.58387 0.76517,-1.3364 0.97266,-2.25 0.2091,-0.91521 0.31445,-1.94933 0.31445,-3.107419 0,-1.15808 -0.10202,-2.17945 -0.30469,-3.0625 -0.15699,-0.68948 -0.39199,-1.28974 -0.69922,-1.80859 -0.12764,-0.0347 -0.2467,-0.0786 -0.35742,-0.13281 -0.80107,-0.39221 -1.26423,-0.85361 -1.51172,-1.59961 -0.0517,-0.0249 -0.0992,-0.0549 -0.15234,-0.0781 -0.70933,-0.31204 -1.58767,-0.4668 -2.63477,-0.4668 z m 12.70508,0 c -0.39777,0 -0.76569,0.0309 -1.11914,0.0781 -1.12358,0.62625 -2.14746,1.13901 -3.04102,1.50586 -0.0648,0.0746 -0.13329,0.14473 -0.19335,0.22461 -0.45359,0.60961 -0.78504,1.35685 -0.99415,2.23828 -0.20749,0.87822 -0.31054,1.9143 -0.31054,3.10938 0,1.158089 0.0997,2.186119 0.30078,3.082029 0.20266,0.8943 0.53114,1.64452 0.98633,2.24609 0.44715,0.60638 1.0317,1.06388 1.7539,1.3711 0.7222,0.30721 1.59422,0.45898 2.61719,0.45898 1.04067,0 1.91601,-0.15304 2.62695,-0.45703 0.71255,-0.30561 1.29608,-0.75483 1.74805,-1.35156 0.44072,-0.58387 0.76517,-1.3364 0.97266,-2.25 0.2091,-0.91521 0.3125,-1.94933 0.3125,-3.107429 0,-1.15807 -0.10008,-2.17944 -0.30274,-3.06249 -0.20106,-0.88304 -0.5255,-1.62535 -0.97265,-2.22852 -0.45358,-0.61765 -1.03711,-1.08019 -1.74805,-1.39062 -0.70933,-0.31204 -1.58961,-0.4668 -2.63672,-0.4668 z m -77.21484,0.32032 c -0.0241,0.38121 -0.11811,0.69898 -0.27735,0.95312 -0.15923,0.25413 -0.39636,0.45761 -0.71484,0.61524 -0.26861,0.13511 -0.60444,0.2301 -1.00977,0.2832 -0.40372,0.0547 -0.82685,0.0801 -1.26757,0.0801 v 2.25195 h 2.88476 v 7.076169 h -2.88476 v 2.41211 h 9.13281 v -2.41211 H 18.80928 V 93.127181 Z m 38.12109,0 c -0.0241,0.38121 -0.1181,0.69898 -0.27734,0.95312 -0.15924,0.25413 -0.39638,0.45761 -0.71485,0.61524 -0.26861,0.13511 -0.60639,0.2301 -1.01172,0.2832 -0.40371,0.0547 -0.82686,0.0801 -1.26757,0.0801 v 2.25195 h 2.88672 v 7.076169 h -2.88672 v 2.41211 h 9.13281 v -2.41211 H 56.93038 V 93.127181 Z m 12.70703,0 c -0.0241,0.38121 -0.1181,0.69898 -0.27734,0.95312 -0.15924,0.25413 -0.39833,0.45761 -0.7168,0.61524 -0.26861,0.13511 -0.60443,0.2301 -1.00976,0.2832 -0.40372,0.0547 -0.82687,0.0801 -1.26758,0.0801 v 2.25195 h 2.88672 v 7.076169 h -2.88672 v 2.41211 h 9.13281 v -2.41211 H 69.63741 V 93.127181 Z m 38.11914,0 c -0.0241,0.38121 -0.11616,0.69898 -0.27539,0.95312 -0.15924,0.25413 -0.39832,0.45761 -0.71679,0.61524 -0.26862,0.13511 -0.60444,0.2301 -1.00977,0.2832 -0.40373,0.0547 -0.82686,0.0801 -1.26758,0.0801 v 2.25195 h 2.88477 v 7.076169 H 101.446 v 2.41211 h 9.13281 v -2.41211 H 107.7585 V 93.127181 Z m -58.73437,0.92773 c -0.92006,0.66325 -1.84924,1.20414 -2.80469,1.63477 0.24338,0.17423 0.44667,0.41508 0.59766,0.74023 0.32491,0.69968 0.48632,1.87512 0.48632,3.52539 0,1.632589 -0.16475,2.803769 -0.49609,3.519529 -0.33134,0.71576 -0.86593,1.07422 -1.60742,1.07422 -0.7415,0 -1.27804,-0.35846 -1.60938,-1.07422 -0.33134,-0.71576 -0.49609,-1.88385 -0.49609,-3.501949 0,-1.53888 0.14371,-2.64547 0.42188,-3.35938 -0.98744,0.20563 -1.60955,0.0961 -2.62305,-0.39453 -0.2482,-0.12015 -0.47768,-0.26957 -0.69336,-0.43945 -0.13817,0.33361 -0.25623,0.68882 -0.34766,1.07422 -0.20749,0.87822 -0.31054,1.91429 -0.31054,3.10937 0,1.158089 0.0997,2.186119 0.30078,3.082029 0.20267,0.8943 0.53113,1.64453 0.98633,2.2461 0.44715,0.60638 1.02976,1.06387 1.75195,1.37109 0.7222,0.30721 1.59616,0.45899 2.61914,0.45899 1.04067,0 1.91601,-0.15305 2.62695,-0.45704 0.71255,-0.3056 1.29413,-0.75483 1.7461,-1.35156 0.44072,-0.58387 0.76516,-1.3364 0.97265,-2.25 0.2091,-0.91521 0.31446,-1.94933 0.31446,-3.107419 0,-1.15808 -0.10203,-2.17945 -0.30469,-3.0625 -0.20106,-0.88304 -0.52551,-1.62534 -0.97266,-2.22851 -0.16645,-0.22666 -0.35748,-0.4245 -0.55859,-0.60938 z m -41.94531,1.32422 c 0.75276,0 1.29227,0.3511 1.61718,1.05078 0.32491,0.69968 0.48633,1.87512 0.48633,3.52539 0,1.632589 -0.16475,2.803769 -0.49609,3.519529 -0.33134,0.71576 -0.86592,1.07422 -1.60742,1.07422 -0.7415,0 -1.27804,-0.35846 -1.60938,-1.07422 -0.33134,-0.71576 -0.49609,-1.88385 -0.49609,-3.501949 0,-1.66315 0.16337,-2.84329 0.48828,-3.54297 0.3249,-0.69968 0.86443,-1.05078 1.61719,-1.05078 z m 25.41406,0 c 0.75276,0 1.29228,0.3511 1.61719,1.05078 0.32491,0.69968 0.48632,1.87512 0.48632,3.52539 0,1.632589 -0.16475,2.803769 -0.49609,3.519529 -0.33134,0.71576 -0.86592,1.07422 -1.60742,1.07422 -0.74149,0 -1.27804,-0.35846 -1.60938,-1.07422 -0.33134,-0.71576 -0.49609,-1.88385 -0.49609,-3.501949 0,-1.66315 0.16337,-2.84329 0.48828,-3.54297 0.32491,-0.69968 0.86444,-1.05078 1.61719,-1.05078 z m 50.82812,0 c 0.75276,0 1.29033,0.3511 1.61524,1.05078 0.3249,0.69968 0.48828,1.87512 0.48828,3.52539 0,1.632589 -0.16671,2.803769 -0.49805,3.519529 -0.33135,0.71576 -0.86397,1.07422 -1.60547,1.07422 -0.7415,0 -1.27998,-0.35846 -1.61132,-1.07422 -0.33134,-0.71576 -0.49415,-1.88385 -0.49415,-3.501949 0,-1.66315 0.16143,-2.84329 0.48633,-3.54297 0.32491,-0.69968 0.86638,-1.05078 1.61914,-1.05078 z m 12.70508,0 c 0.75276,0 1.29228,0.3511 1.61719,1.05078 0.32491,0.69968 0.48828,1.87512 0.48828,3.52539 0,1.632589 -0.16671,2.803769 -0.49805,3.519529 -0.33134,0.71576 -0.86592,1.07422 -1.60742,1.07422 -0.74149,0 -1.27803,-0.35846 -1.60937,-1.07422 -0.33134,-0.71576 -0.4961,-1.88385 -0.4961,-3.501949 0,-1.66315 0.16337,-2.84329 0.48828,-3.54297 0.32491,-0.69968 0.86444,-1.05078 1.61719,-1.05078 z m 20.04883,1.58594 c -0.19167,0.85605 -0.29297,1.84927 -0.29297,2.99804 0,1.158089 0.0997,2.186119 0.30078,3.082029 0.20267,0.8943 0.53113,1.64453 0.98633,2.2461 0.44715,0.60638 1.02976,1.06387 1.75195,1.37109 0.7222,0.30721 1.59616,0.45899 2.61914,0.45899 0.4472,0 0.85801,-0.0335 1.24414,-0.0898 l 0.96485,-0.5586 v -7.923819 c -0.0538,-0.004 -0.10602,-0.0119 -0.16016,-0.0156 0.0333,0.43068 0.0547,0.8937 0.0547,1.42187 0,1.632589 -0.16475,2.803769 -0.49609,3.519529 -0.33134,0.71576 -0.86594,1.07422 -1.60743,1.07422 -0.7415,0 -1.27802,-0.35846 -1.60937,-1.07422 -0.33134,-0.71576 -0.49609,-1.88385 -0.49609,-3.501949 0,-0.71435 0.0377,-1.321 0.0977,-1.85742 -0.43964,-0.0661 -0.81077,-0.13021 -1.01367,-0.18946 -0.86931,-0.25384 -1.64378,-0.58057 -2.34375,-0.96093 z M 54.86397,108.89083 c -1.00529,0 -1.86961,0.15039 -2.5918,0.45117 -0.7222,0.30239 -1.31009,0.7562 -1.76367,1.35937 -0.45358,0.6096 -0.7831,1.3549 -0.99219,2.23633 -0.2075,0.87822 -0.31054,1.91625 -0.31054,3.11133 0,1.15809 0.0997,2.18612 0.30078,3.08203 0.20267,0.8943 0.52917,1.64258 0.98437,2.24414 0.44715,0.60639 1.03172,1.06388 1.75391,1.3711 0.7222,0.30721 1.59616,0.45898 2.61914,0.45898 1.04067,0 1.91602,-0.15108 2.62695,-0.45508 0.71255,-0.3056 1.29412,-0.75677 1.7461,-1.35351 0.44071,-0.58387 0.76516,-1.33444 0.97265,-2.24805 0.2091,-0.91521 0.31446,-1.95129 0.31446,-3.10938 0,-1.15809 -0.10202,-2.1775 -0.30469,-3.06054 -0.20106,-0.88304 -0.52551,-1.6273 -0.97266,-2.23047 -0.45359,-0.61764 -1.03515,-1.07824 -1.74609,-1.38867 -0.70932,-0.31204 -1.58962,-0.46875 -2.63672,-0.46875 z m 12.70703,0 c -1.00529,0 -1.8696,0.15039 -2.59179,0.45117 -0.7222,0.30239 -1.31009,0.7562 -1.76368,1.35937 -0.45358,0.6096 -0.78504,1.3549 -0.99414,2.23633 -0.20749,0.87822 -0.31054,1.91625 -0.31054,3.11133 0,1.15809 0.0997,2.18612 0.30078,3.08203 0.20266,0.8943 0.53114,1.64258 0.98632,2.24414 0.44715,0.60639 1.03172,1.06388 1.75391,1.3711 0.7222,0.30721 1.59616,0.45898 2.61914,0.45898 1.04067,0 1.91407,-0.15108 2.625,-0.45508 0.71255,-0.3056 1.29607,-0.75677 1.74805,-1.35351 0.44071,-0.58387 0.76516,-1.33444 0.97266,-2.24805 0.2091,-0.91521 0.31445,-1.95129 0.31445,-3.10938 0,-1.15809 -0.10202,-2.1775 -0.30469,-3.06054 -0.20105,-0.88304 -0.52551,-1.6273 -0.97266,-2.23047 -0.45359,-0.61764 -1.03711,-1.07824 -1.74804,-1.38867 -0.70933,-0.31204 -1.58767,-0.46875 -2.63477,-0.46875 z m 25.41211,0 c -1.00528,0 -1.86764,0.15039 -2.58984,0.45117 -0.72219,0.30239 -1.31009,0.7562 -1.76367,1.35937 -0.45359,0.6096 -0.78504,1.3549 -0.99415,2.23633 -0.20749,0.87822 -0.31054,1.91625 -0.31054,3.11133 0,1.15809 0.0997,2.18612 0.30078,3.08203 0.20266,0.8943 0.53114,1.64258 0.98633,2.24414 0.44715,0.60639 1.0317,1.06388 1.7539,1.3711 0.44414,0.18892 0.95165,0.31225 1.50977,0.38476 l 6.37695,-3.69726 c 0.0254,-0.0957 0.0555,-0.18556 0.0781,-0.28516 0.2091,-0.91521 0.3125,-1.95129 0.3125,-3.10938 0,-1.15809 -0.10008,-2.1775 -0.30274,-3.06054 -0.20106,-0.88304 -0.5255,-1.6273 -0.97265,-2.23047 -0.45358,-0.61764 -1.03711,-1.07824 -1.74805,-1.38867 -0.70933,-0.31204 -1.58961,-0.46875 -2.63672,-0.46875 z m 12.70703,0 c -1.00529,0 -1.86765,0.15039 -2.58984,0.45117 -0.7222,0.30239 -1.31009,0.7562 -1.76367,1.35937 -0.45359,0.6096 -0.78504,1.3549 -0.99414,2.23633 -0.20749,0.87822 -0.31055,1.91625 -0.31055,3.11133 0,0.82586 0.0699,1.56114 0.17187,2.25391 l 3.38868,-1.96485 c -0.001,-0.0966 -0.008,-0.17921 -0.008,-0.27929 0,-1.66314 0.16337,-2.84526 0.48828,-3.54493 0.32492,-0.69968 0.86443,-1.04882 1.61719,-1.04882 0.75275,0 1.29228,0.34914 1.61719,1.04882 0.16654,0.35863 0.28797,0.84693 0.36914,1.45508 l 3.12695,-1.8125 c -0.18942,-0.53029 -0.43063,-1.00375 -0.73047,-1.4082 -0.45357,-0.61764 -1.03515,-1.07824 -1.74609,-1.38867 -0.70933,-0.31204 -1.58962,-0.46875 -2.63672,-0.46875 z m -100,0.32226 0.41407,0.24024 v -0.24024 z m 10.07813,0 c -0.0241,0.3812 -0.11811,0.69704 -0.27735,0.95117 -0.15923,0.25414 -0.39636,0.45956 -0.71484,0.61719 -0.26861,0.13511 -0.60444,0.22815 -1.00977,0.28125 -0.40372,0.0547 -0.82685,0.0801 -1.26757,0.0801 v 2.01758 l 0.40429,0.23438 h 2.48047 v 1.43945 l 3.42578,1.98633 v -7.60743 z m 12.70703,0 c -0.0241,0.3812 -0.11811,0.69704 -0.27735,0.95117 -0.15924,0.25414 -0.39636,0.45956 -0.71484,0.61719 -0.26861,0.13511 -0.60442,0.22815 -1.00976,0.28125 -0.40372,0.0547 -0.82686,0.0801 -1.26758,0.0801 v 2.25196 h 2.88476 v 7.07616 h -2.88476 v 0.0586 l 4.0625,2.35546 h 5.07031 v -2.41406 h -2.82227 v -11.25781 z m 12.70703,0 c -0.0241,0.3812 -0.11811,0.69704 -0.27734,0.95117 -0.15924,0.25414 -0.39638,0.45956 -0.71485,0.61719 -0.26862,0.13511 -0.60443,0.22815 -1.00976,0.28125 -0.40373,0.0547 -0.82686,0.0801 -1.26758,0.0801 v 2.25196 h 2.88476 v 7.07616 H 37.9128 v 2.41407 h 9.13281 v -2.41407 h -2.82226 v -11.25781 z m 38.11914,0 c -0.0241,0.3812 -0.11615,0.69704 -0.27539,0.95117 -0.15923,0.25414 -0.39833,0.45956 -0.7168,0.61719 -0.26861,0.13511 -0.60443,0.22815 -1.00976,0.28125 -0.40372,0.0547 -0.82687,0.0801 -1.26758,0.0801 v 2.25196 h 2.88672 v 7.07616 h -2.88672 v 2.41407 h 9.13281 v -2.41407 h -2.82031 v -11.25781 z m -24.4375,2.25196 c 0.75275,0 1.29033,0.34914 1.61524,1.04882 0.3249,0.69967 0.48828,1.87513 0.48828,3.52539 0,1.63259 -0.16671,2.80572 -0.49805,3.52149 -0.33134,0.71576 -0.86398,1.07226 -1.60547,1.07226 -0.7415,0 -1.27998,-0.3565 -1.61133,-1.07226 -0.33134,-0.71577 -0.49414,-1.88384 -0.49414,-3.50195 0,-1.66314 0.16142,-2.84526 0.48633,-3.54493 0.32491,-0.69968 0.86638,-1.04882 1.61914,-1.04882 z m 12.70703,0 c 0.75276,0 1.29033,0.34914 1.61524,1.04882 0.3249,0.69967 0.48828,1.87513 0.48828,3.52539 0,1.63259 -0.1667,2.80572 -0.49805,3.52149 -0.33134,0.71576 -0.86397,1.07226 -1.60547,1.07226 -0.7415,0 -1.27999,-0.3565 -1.61133,-1.07226 -0.33135,-0.71577 -0.49414,-1.88384 -0.49414,-3.50195 0,-1.66314 0.16143,-2.84526 0.48633,-3.54493 0.32491,-0.69968 0.86638,-1.04882 1.61914,-1.04882 z m 25.41211,0 c 0.75276,0 1.29228,0.34914 1.61719,1.04882 0.32491,0.69967 0.48828,1.87513 0.48828,3.52539 0,1.63259 -0.16671,2.80572 -0.49805,3.52149 -0.33134,0.71576 -0.86592,1.07226 -1.60742,1.07226 -0.74149,0 -1.27803,-0.3565 -1.60937,-1.07226 -0.33134,-0.71577 -0.4961,-1.88384 -0.4961,-3.50195 0,-1.66314 0.16337,-2.84526 0.48828,-3.54493 0.32491,-0.69968 0.86444,-1.04882 1.61719,-1.04882 z M 67.571,124.97481 c -1.00529,0 -1.8696,0.15235 -2.59179,0.45313 -0.7222,0.30239 -1.31009,0.75424 -1.76368,1.35742 -0.45358,0.6096 -0.78504,1.35489 -0.99414,2.23633 -0.20749,0.87821 -0.31054,1.91624 -0.31054,3.11132 0,1.15808 0.0997,2.18613 0.30078,3.08204 0.20266,0.8943 0.53114,1.64453 0.98632,2.24609 0.42971,0.58273 0.99019,1.02168 1.67383,1.32812 l 8.24219,-4.77929 c 0.0709,-0.59162 0.11719,-1.21258 0.11719,-1.88672 0,-1.15809 -0.10202,-2.17751 -0.30469,-3.06055 -0.20105,-0.88304 -0.52551,-1.62534 -0.97266,-2.22851 -0.45359,-0.61765 -1.03711,-1.08019 -1.74804,-1.39063 -0.70933,-0.31204 -1.58767,-0.46875 -2.63477,-0.46875 z m -26.38867,0.32227 c -0.0241,0.38121 -0.11811,0.69898 -0.27734,0.95312 -0.15924,0.25414 -0.39638,0.45761 -0.71485,0.61524 -0.26862,0.13511 -0.60443,0.22815 -1.00976,0.28125 -0.40373,0.0547 -0.82686,0.0801 -1.26758,0.0801 v 0.67187 l 2.72656,1.58008 h 0.1582 v 0.0918 l 3.42579,1.98633 v -6.25977 z m 12.70703,0 c -0.0241,0.38121 -0.1181,0.69898 -0.27734,0.95312 -0.15924,0.25414 -0.39638,0.45761 -0.71485,0.61524 -0.26861,0.13511 -0.60639,0.22815 -1.01172,0.28125 -0.40371,0.0547 -0.82686,0.0801 -1.26757,0.0801 v 2.25195 h 2.88672 v 7.07812 h -0.66016 l 4.16016,2.41211 h 2.74609 v -2.41211 H 56.93038 V 125.2971 Z m 25.41211,0 c -0.0241,0.38121 -0.11615,0.69898 -0.27539,0.95312 -0.15923,0.25414 -0.39833,0.45761 -0.7168,0.61524 -0.26861,0.13511 -0.60443,0.22815 -1.00976,0.28125 -0.40372,0.0547 -0.82687,0.0801 -1.26758,0.0801 v 2.25195 h 2.88672 v 1.16601 l 3.42578,-1.98632 V 125.2971 Z M 67.571,127.54903 c 0.75276,0 1.29033,0.3511 1.61524,1.05078 0.3249,0.69968 0.48828,1.87316 0.48828,3.52344 0,1.63258 -0.1667,2.80572 -0.49805,3.52148 -0.33134,0.71577 -0.86397,1.07227 -1.60547,1.07227 -0.7415,0 -1.27999,-0.3565 -1.61133,-1.07227 -0.33135,-0.71576 -0.49414,-1.88385 -0.49414,-3.50195 0,-1.66314 0.16143,-2.84329 0.48633,-3.54297 0.32491,-0.69968 0.86638,-1.05078 1.61914,-1.05078 z"
     id="polyline29-3"
     inkscape:connector-curvature="0" />
  <polyline
     transform="translate(0,3.1186739e-5)"
     points="2.285 37.429 2.285 106.799 62.105 141.486 121.926 106.799 121.926 37.429 62.105 2.743 2.285 37.429"
     style="fill:none;fill-opacity:1;fill-rule:nonzero;stroke:#008a00;stroke-width:4;stroke-linecap:round;stroke-linejoin:round;stroke-miterlimit:10;stroke-opacity:0.99004977"
     clip-path="url(#cpMHwxMjQuNDQxfDE0My45OTd8MC4xNDMxMzc=)"
     id="polyline29-34" />
</svg>
