<svg xmlns="http://www.w3.org/2000/svg" version="1.1" viewBox="0 0 124.44 144.00" id="svg2" sodipodi:docname="new-logo-marine.svg" inkscape:version="1.2.2 (732a01da63, 2022-12-09)" inkscape:export-filename="logo.svg" inkscape:export-xdpi="153.38" inkscape:export-ydpi="153.38" xml:space="preserve" xmlns:inkscape="http://www.inkscape.org/namespaces/inkscape" xmlns:sodipodi="http://sodipodi.sourceforge.net/DTD/sodipodi-0.dtd" xmlns:svg="http://www.w3.org/2000/svg" xmlns:rdf="http://www.w3.org/1999/02/22-rdf-syntax-ns#" xmlns:cc="http://creativecommons.org/ns#" xmlns:dc="http://purl.org/dc/elements/1.1/" width="124.44" height="144"><metadata><rdf:RDF xmlns:rdf="http://www.w3.org/1999/02/22-rdf-syntax-ns#" xmlns:dc="http://purl.org/dc/elements/1.1/"><rdf:Description><dc:creator>RealFaviconGenerator</dc:creator><dc:source>https://realfavicongenerator.net</dc:source></rdf:Description></rdf:RDF></metadata><metadata id="metadata159"><rdf:rdf><cc:work rdf:about=""><dc:format>image/svg+xml</dc:format><dc:type rdf:resource="http://purl.org/dc/dcmitype/StillImage"></dc:type></cc:work></rdf:rdf></metadata><sodipodi:namedview pagecolor="#ffffff" bordercolor="#666666" borderopacity="1" objecttolerance="10" gridtolerance="10" guidetolerance="10" inkscape:pageopacity="0" inkscape:pageshadow="2" inkscape:window-width="1920" inkscape:window-height="991" id="namedview157" showgrid="true" inkscape:zoom="3.0603482" inkscape:cx="108.97453" inkscape:cy="107.66749" inkscape:window-x="-9" inkscape:window-y="-9" inkscape:window-maximized="1" inkscape:current-layer="svg2" showguides="true" inkscape:showpageshadow="2" inkscape:pagecheckerboard="0" inkscape:deskcolor="#d1d1d1"><inkscape:grid type="xygrid" id="grid861" spacingx="0.16" spacingy="0.16" empspacing="4" units="pc"></inkscape:grid></sodipodi:namedview><defs id="defs4"><inkscape:path-effect effect="copy_rotate" starting_point="0,0" id="path-effect9728" is_visible="true" lpeversion="1.2" lpesatellites="" method="normal" num_copies="6" starting_angle="0" rotation_angle="60" gap="-0.01" origin="-84.79,28.89" copies_to_360="true" mirror_copies="false" split_items="false" link_styles="false"></inkscape:path-effect><inkscape:path-effect effect="copy_rotate" starting_point="0,0" id="path-effect7175" is_visible="true" lpeversion="1.2" lpesatellites="" method="normal" num_copies="8" starting_angle="0" rotation_angle="45" gap="-0.01" origin="-94.525391,30.162109" copies_to_360="true" mirror_copies="false" split_items="false" link_styles="false"></inkscape:path-effect><inkscape:path-effect effect="copy_rotate" starting_point="0,0" origin="-68.755859,26.324219" id="path-effect6384" is_visible="true" lpeversion="1.2" lpesatellites="" method="normal" num_copies="6" starting_angle="0" rotation_angle="60" gap="0.11" copies_to_360="true" mirror_copies="false" split_items="false" link_styles="false"></inkscape:path-effect><inkscape:path-effect effect="fillet_chamfer" id="path-effect1804" is_visible="true" lpeversion="1" nodesatellites_param="F,0,1,1,0,6.1962597,0,1 @ F,0,1,1,0,6.1962597,0,1 @ F,0,1,1,0,6.1962597,0,1 @ F,0,1,1,0,6.1962597,0,1 @ F,0,1,1,0,6.1962597,0,1 @ F,0,0,1,0,6.1962597,0,1" unit="px" method="auto" mode="F" radius="0" chamfer_steps="1" flexible="false" use_knot_distance="true" apply_no_radius="true" apply_with_radius="true" only_selected="false" hide_knots="false"></inkscape:path-effect><style type="text/css" id="style6">
    line, polyline, path, rect, circle {
      fill: none;
      stroke: #000000;
      stroke-linecap: round;
      stroke-linejoin: round;
      stroke-miterlimit: 10.00;
    }
  </style><mask maskUnits="userSpaceOnUse" id="mask4581"><polyline transform="translate(93.114,32.081)" points="2.285 37.429 2.285 106.799 62.105 141.486 121.926 106.799 121.926 37.429 62.105 2.743 2.285 37.429" style="fill:#dedccf;fill-opacity:1;fill-rule:nonzero;stroke:#008a00;stroke-width:4;stroke-linecap:round;stroke-linejoin:round;stroke-miterlimit:10;stroke-opacity:0.99004977" clip-path="url(#cpMHwxMjQuNDQxfDE0My45OTd8MC4xNDMxMzc=)" id="polyline4583"></polyline></mask><clipPath clipPathUnits="userSpaceOnUse" id="clipPath5085"><polyline transform="translate(-62.732692,-31.469154)" points="2.285 37.429 2.285 106.799 62.105 141.486 121.926 106.799 121.926 37.429 62.105 2.743 2.285 37.429" style="fill:#d5d2ca;fill-opacity:1;fill-rule:nonzero;stroke:none;stroke-width:4;stroke-linecap:round;stroke-linejoin:round;stroke-miterlimit:10;stroke-opacity:0.99004977" clip-path="url(#cpMHwxMjQuNDQxfDE0My45OTd8MC4xNDMxMzc=)" id="polyline5087"></polyline></clipPath><pattern id="EMFhbasepattern" patternUnits="userSpaceOnUse" width="6" height="6" x="0" y="0"></pattern><inkscape:path-effect effect="fillet_chamfer" id="path-effect1804-0" is_visible="true" lpeversion="1" nodesatellites_param="F,0,1,1,0,6.1962597,0,1 @ F,0,1,1,0,6.1962597,0,1 @ F,0,1,1,0,6.1962597,0,1 @ F,0,1,1,0,6.1962597,0,1 @ F,0,1,1,0,6.1962597,0,1 @ F,0,0,1,0,6.1962597,0,1" unit="px" method="auto" mode="F" radius="0" chamfer_steps="1" flexible="false" use_knot_distance="true" apply_no_radius="true" apply_with_radius="true" only_selected="false" hide_knots="false"></inkscape:path-effect></defs><rect width="100%" height="100%" style="fill:none;stroke:none;stroke-linecap:round;stroke-linejoin:round;stroke-miterlimit:10" id="rect8" x="-0.954" y="-1.3609837"></rect><rect x="-0.954" y="-1.2209691" width="124.44" height="143.71001" style="fill:none;stroke:none;stroke-width:1.07000005;stroke-linecap:round;stroke-linejoin:round;stroke-miterlimit:10" clip-path="url(#cpMHwxMjQuNDQxfDE0My44NTd8MC4xNDMxMzc=)" id="rect15"></rect><rect x="-1.094" y="-1.2209691" width="124.58" height="143.85001" style="fill:none;stroke:none;stroke-width:1.07000005;stroke-linecap:round;stroke-linejoin:round;stroke-miterlimit:10" clip-path="url(#cpMHwxMjQuNDQxfDE0My45OTd8MC4xNDMxMzc=)" id="rect27"></rect><path id="path420" style="fill:#fbfbfb;fill-opacity:1;stroke:none;stroke-width:4.82986;stroke-linecap:round;stroke-linejoin:round;stroke-miterlimit:10;stroke-opacity:1;paint-order:markers fill stroke" d="M 116.50106,109.53544 67.58612,137.7765 a 10.732235,10.732235 180 0 1 -10.732236,0 L 7.9389377,109.53544 A 10.732237,10.732237 60.000001 0 1 2.5728195,100.24105 V 43.758942 a 10.732236,10.732236 120 0 1 5.3661183,-9.29439 L 56.853885,6.2234952 a 10.732236,10.732236 1.3518133e-6 0 1 10.732236,2e-7 L 116.50106,34.464552 a 10.732237,10.732237 60.000001 0 1 5.36612,9.29439 l 0,56.482108 a 10.732238,10.732238 120 0 1 -5.36612,9.29439 z" inkscape:path-effect="#path-effect1804" inkscape:original-d="M 121.86718,106.43731 62.220002,140.87463 2.5728195,106.43731 V 37.562682 L 62.220003,3.1253654 121.86718,37.562682 Z"></path><path id="path8035" style="fill:#0ea3ad;fill-opacity:1;stroke:none;stroke-width:0.681;stroke-dasharray:none;stroke-opacity:1;paint-order:markers fill stroke" d="m 66.219998,29.487357 a 50,50 0 0 0 -49.999996,50 A 50,50 0 0 0 34.550076,118.0772 48.042706,48.042706 0 0 1 18.177032,81.979544 48.042706,48.042706 0 0 1 66.219998,33.936576 48.042706,48.042706 0 0 1 114.26297,81.979544 48.042706,48.042706 0 0 1 97.88992,118.0772 50,50 0 0 0 116.22,79.487357 a 50,50 0 0 0 -50.000002,-50 z"></path><g id="path6394-1-1" style="fill:#133861;fill-opacity:1;stroke:none" transform="translate(46.736718,51.892126)" inkscape:transform-center-y="-19.907385"></g><g id="path6394-1-8" style="fill:#133861;fill-opacity:1;stroke:none" transform="rotate(-45,-6.8936713,19.599348)" inkscape:transform-center-y="-14.076647" inkscape:transform-center-x="14.076646"></g><g id="path6394-1-7" style="fill:#133861;fill-opacity:1;stroke:none" transform="rotate(-90,-43.586945,52.647198)" inkscape:transform-center-x="19.907385"></g><g id="path6394-1-3" style="fill:#133861;fill-opacity:1;stroke:none" transform="rotate(-135,-58.785797,66.336066)" inkscape:transform-center-y="14.076647" inkscape:transform-center-x="14.076647"></g><g id="path6394-1-6" style="fill:#133861;fill-opacity:1;stroke:none" transform="rotate(180,-69.533008,76.015557)" inkscape:transform-center-y="19.907385"></g><g id="path6394-1-9" style="fill:#133861;fill-opacity:1;stroke:none" transform="rotate(135,-80.28022,85.695048)" inkscape:transform-center-y="14.076647" inkscape:transform-center-x="-14.076646"></g><g id="path6394-1-70" style="fill:#133861;fill-opacity:1;stroke:none" transform="rotate(90,-95.479071,99.383916)" inkscape:transform-center-x="-19.907385"></g><g inkscape:label="WireframeSphere" transform="translate(66.220001,78)" id="g10859" style="stroke:none;stroke-width:2.3;stroke-linecap:round;stroke-linejoin:round;paint-order:stroke markers fill;fill:#133861;fill-opacity:1"><g inkscape:label="Lines of Longitude" id="g10847" style="stroke:none;fill:#133861;fill-opacity:1"><path style="color:#000000;fill:#133861;stroke:none;stroke-miterlimit:10;-inkscape-stroke:none;fill-opacity:1" d="m 0.00195313,-36.150391 c 0,0 -1.15232163,1.174895 -1.15234373,1.226563 -2.22e-5,0.05167 2.18e-5,0.128648 0,0.230469 -4.36e-5,0.203642 4.2e-5,0.506973 0,0.904297 -8.4e-5,0.794647 7.47e-5,1.96782 0,3.478515 -1.495e-4,3.02139 8.93e-5,7.396026 0,12.810547 v 35 c 8.93e-5,5.414521 -1.495e-4,9.789157 0,12.810547 7.47e-5,1.510695 -8.4e-5,2.683868 0,3.478515 4.2e-5,0.397324 -4.36e-5,0.700655 0,0.904297 2.18e-5,0.101821 -2.22e-5,0.178801 0,0.230469 2.21e-5,0.05167 0,0.07617 0,0.07617 a 1.150391,1.150391 0 0 0 2.3007812,-0.002 1.15,1.15 0 0 0 -0.050781,-0.125 c 0.0044,0.0022 0.050782,0.05112 0.050781,0.04883 -2.2e-5,-0.05134 2.18e-5,-0.12873 0,-0.230469 -4.35e-5,-0.203477 4.2e-5,-0.505062 0,-0.902344 -8.4e-5,-0.794563 7.48e-5,-1.967843 0,-3.478515 C 1.1502411,27.289202 1.1485268,22.914506 1.1484375,17.5 v -35 c 8.93e-5,-5.414506 0.0018,-9.789202 0.00195,-12.810547 7.48e-5,-1.510672 -8.4e-5,-2.683952 0,-3.478515 4.2e-5,-0.397282 -4.35e-5,-0.698867 0,-0.902344 2.18e-5,-0.101739 -2.2e-5,-0.17913 0,-0.230469 2.15e-5,-0.05006 -2.1e-6,-0.07487 0,-0.07617 a 1.15,1.15 0 0 0 0,-0.002 1.15,1.15 0 0 0 -1.14843747,-1.150391 z" id="path10839"></path><path style="color:#000000;fill:#133861;stroke:none;stroke-miterlimit:10;-inkscape-stroke:none;fill-opacity:1" d="m 0,-36.150391 c -8.9245163,10e-7 -16.947201,7.114328 -21.214844,18.238282 -4.267642,11.1239535 -4.267642,24.7002645 0,35.824218 C -16.947201,29.036063 -8.9245163,36.15039 0,36.150391 A 1.15,1.15 0 0 0 1.1503906,35 1.15,1.15 0 0 0 0,33.849609 c -7.6934658,0 -15.027011,-6.227619 -19.068359,-16.761718 -4.041349,-10.5341002 -4.041349,-23.6416818 0,-34.175782 C -15.027011,-27.62199 -7.6934658,-33.849609 0,-33.849609 A 1.15,1.15 0 0 0 1.1503906,-35 1.15,1.15 0 0 0 0,-36.150391 Z" id="path10841" transform="rotate(18.8817)"></path><path style="color:#000000;fill:#133861;stroke:none;stroke-miterlimit:10;-inkscape-stroke:none;fill-opacity:1" d="m 0,-36.150391 c -12.185788,10e-7 -23.430058,6.924527 -29.494141,18.101563 -6.064082,11.1770363 -6.064082,24.9206197 0,36.097656 C -23.430058,29.225864 -12.185788,36.15039 0,36.150391 A 1.15,1.15 0 0 0 1.1503906,35 1.15,1.15 0 0 0 0,33.849609 c -11.315293,0 -21.786198,-6.41742 -27.472656,-16.898437 -5.686459,-10.4810174 -5.686459,-23.4213266 0,-33.902344 C -21.786198,-27.432189 -11.315293,-33.849609 0,-33.849609 A 1.15,1.15 0 0 0 1.1503906,-35 1.15,1.15 0 0 0 0,-36.150391 Z" id="path10843" transform="rotate(90)"></path><path style="color:#000000;fill:#133861;stroke:none;stroke-miterlimit:10;-inkscape-stroke:none;fill-opacity:1" d="M 0,-36.150391 A 1.15,1.15 0 0 0 -1.1503906,-35 1.15,1.15 0 0 0 0,-33.849609 c 5.9546388,0 11.428787,3.629108 15.488281,9.738281 4.059494,6.109173 6.619141,14.6528471 6.619141,24.111328 0,9.4584809 -2.559647,18.002155 -6.619141,24.111328 C 11.428787,30.220501 5.9546388,33.849609 0,33.849609 A 1.15,1.15 0 0 0 -1.1503906,35 1.15,1.15 0 0 0 0,36.150391 c 6.8899486,0 13.044393,-4.207303 17.402344,-10.765625 C 21.760294,18.826443 24.40625,9.871466 24.40625,0 c 0,-9.871466 -2.645956,-18.826443 -7.003906,-25.384766 C 13.044393,-31.943088 6.8899486,-36.150391 0,-36.150391 Z" id="path10845" transform="rotate(-18.8817)"></path></g><g inkscape:label="Lines of Latitude" id="g10855" style="stroke:none;fill:#133861;fill-opacity:1"><path style="color:#000000;fill:#133861;stroke:none;stroke-miterlimit:10;-inkscape-stroke:none;fill-opacity:1" d="m -23.126953,25.189453 a 1.15,1.15 0 0 0 -0.789063,0.390625 1.15,1.15 0 0 0 0.107422,1.623047 c 2.113283,1.849847 5.460048,3.199417 9.589844,4.164062 4.129796,0.964646 9.0424044,1.503907 14.21875,1.503907 5.1763456,0 10.088954,-0.539261 14.21875,-1.503907 4.129796,-0.964645 7.476561,-2.314215 9.589844,-4.164062 a 1.15,1.15 0 0 0 0.107422,-1.623047 1.15,1.15 0 0 0 -1.623047,-0.107422 c -1.596275,1.397288 -4.677216,2.738553 -8.597656,3.654297 C 9.7748725,30.042697 5.0155784,30.572266 0,30.572266 c -5.0155784,0 -9.7748725,-0.529569 -13.695313,-1.445313 -3.92044,-0.915744 -7.001381,-2.257009 -8.597656,-3.654297 a 1.15,1.15 0 0 0 -0.833984,-0.283203 z" id="path10849"></path><path style="color:#000000;fill:#133861;stroke:none;stroke-miterlimit:10;-inkscape-stroke:none;fill-opacity:1" d="M -35,-1.1503906 A 1.15,1.15 0 0 0 -36.150391,0 c 0,2.7364217 2.059753,5.0822464 5.253907,6.9746094 3.194153,1.892363 7.671248,3.4348246 13.173828,4.5214846 11.0051593,2.17332 24.4401527,2.17332 35.445312,0 5.50258,-1.08666 9.979674,-2.6291216 13.173828,-4.5214846 C 34.090638,5.0822464 36.150391,2.7364218 36.150391,0 A 1.15,1.15 0 0 0 35,-1.1503906 1.15,1.15 0 0 0 33.849609,0 c 10e-7,1.5406523 -1.276419,3.3084642 -4.125,4.9960937 -2.84858,1.6876296 -7.120818,3.1922636 -12.447265,4.2441407 -10.6528949,2.1037546 -23.9017931,2.1037546 -34.554688,0 C -22.603791,8.1883573 -26.876029,6.6837233 -29.724609,4.9960937 -32.57319,3.3084642 -33.84961,1.5406523 -33.849609,0 A 1.15,1.15 0 0 0 -35,-1.1503906 Z" id="path10851"></path><path style="color:#000000;fill:#133861;stroke:none;stroke-miterlimit:10;-inkscape-stroke:none;fill-opacity:1" d="m 22.974609,-27.484375 a 1.15,1.15 0 0 0 -0.789062,0.388672 1.15,1.15 0 0 0 0.107422,1.623047 c 0.867891,0.759703 1.220861,1.431702 1.292968,1.986328 0.07211,0.554625 -0.08726,1.109672 -0.65625,1.798828 -1.137976,1.378311 -3.990643,2.957287 -8.283203,4.068359 -8.5851196,2.222145 -20.707847,2.222145 -29.292968,0 -4.292562,-1.111072 -7.145227,-2.690048 -8.283203,-4.068359 -0.568989,-0.689156 -0.728358,-1.244202 -0.65625,-1.798828 0.07211,-0.554626 0.425076,-1.226625 1.292968,-1.986328 a 1.15,1.15 0 0 0 0.107422,-1.623047 1.15,1.15 0 0 0 -1.623047,-0.107422 c -1.148108,1.004988 -1.894458,2.159408 -2.058593,3.421875 -0.164136,1.262467 0.303894,2.516763 1.164062,3.558594 1.720336,2.083662 4.939253,3.654645 9.480469,4.830078 9.0824293,2.350866 21.3628839,2.350866 30.445312,0 4.541214,-1.175433 7.760133,-2.746416 9.480469,-4.830078 0.860168,-1.041831 1.328198,-2.296127 1.164062,-3.558594 -0.164135,-1.262467 -0.910486,-2.416887 -2.058593,-3.421875 a 1.15,1.15 0 0 0 -0.833985,-0.28125 z" id="path10853"></path></g><path style="color:#000000;fill:#133861;stroke:none;stroke-miterlimit:10;-inkscape-stroke:none;fill-opacity:1" d="m 0,-36.150391 c -19.951452,0 -36.150391,16.198939 -36.150391,36.150391 0,19.951452 16.198939,36.150391 36.150391,36.150391 C 19.951452,36.150391 36.150391,19.951452 36.150391,0 36.150391,-19.951452 19.951452,-36.150391 0,-36.150391 Z m 0,2.300782 c 18.708441,0 33.849609,15.141168 33.849609,33.849609 0,18.708441 -15.141168,33.849609 -33.849609,33.849609 -18.708441,0 -33.849609,-15.141168 -33.849609,-33.849609 0,-18.708441 15.141168,-33.849609 33.849609,-33.849609 z" id="path10857"></path></g><ellipse style="fill:#fbfbfb;fill-opacity:1;stroke:#fbfbfb;stroke-width:3.55729;stroke-linecap:round;stroke-linejoin:round;stroke-dasharray:none;stroke-opacity:1;paint-order:stroke markers fill" id="path17227" cx="65.0672" cy="113.98295" rx="39.853413" ry="9.6218996"></ellipse><path d="m 56.477755,130.60117 c -2.7955,-0.75277 -5.18845,-1.87795 -9.46749,-4.45171 -2.72586,-1.63954 -2.80067,-1.73473 -1.61307,-2.05233 1.66231,-0.44458 4.3604,0.1316 7.68592,1.64133 5.79599,2.63129 12.39664,2.82077 17.85259,0.5125 4.30751,-1.8224 7.58063,-2.65447 9.12495,-2.3197 l 1.35382,0.29349 -1.59414,1.19527 c -2.48206,1.86104 -7.80455,4.42166 -10.82746,5.20902 -3.40027,0.88566 -9.1703,0.87281 -12.51512,-0.0279 z m 3.96492,-10.13214 c -5.05393,-0.99523 -6.66234,-1.45766 -9.92071,-2.8523 -6.44453,-2.75837 -9.858,-3.03799 -15.66226,-1.28298 -2.36586,0.71536 -2.56917,0.70835 -3.48461,-0.1201 -0.53468,-0.48389 -0.97215,-1.01946 -0.97215,-1.19016 0,-0.61703 4.2674,-2.36462 7.16718,-2.93512 4.40639,-0.8669 7.95426,-0.30226 14.37336,2.28748 5.42752,2.18971 5.78421,2.26622 10.66206,2.28704 4.97553,0.0213 5.12798,-0.0121 10.8143,-2.36173 5.57528,-2.30379 5.92792,-2.38394 10.57399,-2.40318 4.46013,-0.0185 5.04731,0.0942 8.1513,1.56401 l 3.34493,1.58391 -1.42239,1.13523 c -1.32941,1.06102 -1.52898,1.09075 -3.05288,0.45473 -4.9274,-2.05652 -10.21507,-1.67157 -17.04069,1.24058 -5.31743,2.26868 -10.3144,3.22609 -13.53143,2.59259 z m -2.54686,-11.26607 c -1.13642,-0.22381 -4.17039,-1.37144 -6.74216,-2.5503 -8.31554,-3.8117 -13.17151,-3.83918 -20.58021,-0.11646 -1.88884,0.94911 -4.5349,1.9617 -5.88012,2.2502 -2.21068,0.4741 -2.58525,0.42529 -3.89544,-0.50764 -0.79726,-0.5677 -1.44957,-1.21063 -1.44957,-1.42874 0,-0.2181 1.34697,-0.63381 2.99325,-0.9238 1.83125,-0.32257 4.9229,-1.50061 7.96394,-3.03458 4.72583,-2.38382 5.18804,-2.5167 9.38312,-2.69759 4.8574,-0.20945 6.13235,0.11797 13.78484,3.54009 3.26363,1.45947 4.83161,1.87029 7.79516,2.04235 4.55214,0.2643 6.83359,-0.28501 13.0668,-3.14612 7.95655,-3.65213 13.52948,-3.4517 21.5601,0.77543 1.959555,1.03147 4.895415,2.09807 6.722945,2.44245 1.78436,0.33625 3.24429,0.78745 3.24429,1.00268 0,0.21523 -0.59142,0.85655 -1.3143,1.42516 -1.81166,1.42505 -4.40743,0.99145 -10.234945,-1.70962 -8.20149,-3.80143 -11.66174,-3.83815 -19.69208,-0.20894 -7.16285,3.23716 -11.22638,3.92846 -16.72562,2.84543 z" style="fill:#0ea3ad;fill-opacity:1;stroke:#fbfbfb;stroke-width:5.249;stroke-linecap:round;stroke-linejoin:round;stroke-miterlimit:10;stroke-dasharray:none;stroke-opacity:1;paint-order:stroke markers fill" id="path14958" sodipodi:nodetypes="sssssscssssssssssssssscsssssssssssssssssssssss"></path><path id="path420-8" style="fill:none;fill-opacity:1;stroke:#133861;stroke-width:4.82986;stroke-linecap:round;stroke-linejoin:round;stroke-miterlimit:10;stroke-opacity:1;paint-order:markers fill stroke" d="M 116.50106,109.53544 67.586119,137.7765 a 10.732235,10.732235 180 0 1 -10.732236,0 L 7.9389393,109.53544 A 10.732237,10.732237 60.000002 0 1 2.5728212,100.24105 V 43.758946 a 10.732237,10.732237 120 0 1 5.3661183,-9.29439 L 56.853883,6.2234992 a 10.732236,10.732236 1.6637703e-7 0 1 10.732236,0 L 116.50106,34.464556 a 10.732237,10.732237 60.000001 0 1 5.36612,9.29439 l 0,56.482104 a 10.732237,10.732237 120 0 1 -5.36612,9.29439 z" inkscape:path-effect="#path-effect1804-0" inkscape:original-d="M 121.86718,106.43731 62.220001,140.87463 2.5728212,106.43731 V 37.562686 L 62.220001,3.1253692 121.86718,37.562686 Z"></path></svg>